<svg width="325" height="325" viewBox="0 0 325 325" fill="none" xmlns="http://www.w3.org/2000/svg">
<rect width="325" height="325" rx="83.4862" fill="#09090B"/>
<path d="M251.949 138.556H199.398C199.025 134.191 198.031 130.232 196.416 126.678C194.863 123.123 192.689 120.068 189.894 117.512C187.161 114.893 183.837 112.897 179.924 111.526C176.01 110.091 171.569 109.374 166.6 109.374C157.903 109.374 150.542 111.494 144.517 115.735C138.553 119.975 134.019 126.054 130.913 133.973C127.869 141.892 126.347 151.401 126.347 162.5C126.347 174.223 127.9 184.043 131.006 191.962C134.174 199.819 138.74 205.742 144.703 209.733C150.666 213.661 157.841 215.626 166.227 215.626C171.01 215.626 175.296 215.033 179.085 213.848C182.874 212.601 186.167 210.824 188.962 208.517C191.757 206.21 194.025 203.435 195.764 200.193C197.565 196.888 198.777 193.178 199.398 189.063L251.949 189.437C251.328 197.543 249.061 205.805 245.147 214.223C241.234 222.578 235.675 230.31 228.469 237.418C221.325 244.464 212.474 250.138 201.914 254.441C191.354 258.743 179.085 260.894 165.109 260.894C147.592 260.894 131.876 257.122 117.961 249.577C104.109 242.032 93.1454 230.933 85.0701 216.28C77.0569 201.627 73.0503 183.7 73.0503 162.5C73.0503 141.175 77.1501 123.217 85.3496 108.626C93.5491 93.973 104.606 82.9052 118.52 75.4227C132.435 67.8779 147.964 64.1055 165.109 64.1055C177.16 64.1055 188.248 65.7578 198.373 69.0626C208.498 72.3674 217.381 77.1998 225.021 83.5599C232.662 89.8576 238.811 97.6207 243.47 106.849C248.129 116.077 250.955 126.646 251.949 138.556Z" fill="white"/>
<mask id="mask0_2824_8621" style="mask-type:alpha" maskUnits="userSpaceOnUse" x="62" y="68" width="132" height="198">
<path d="M123.739 68.578L152.064 111.812L186.353 211.697L193.807 259.404L99.8854 265.367L62.6147 211.697L73.0505 107.339L123.739 68.578Z" fill="#A1A1AA"/>
</mask>
<g mask="url(#mask0_2824_8621)">
<path d="M251.949 138.556H199.398C199.025 134.191 198.031 130.232 196.416 126.678C194.863 123.123 192.689 120.068 189.894 117.512C187.161 114.893 183.837 112.897 179.924 111.526C176.01 110.091 171.569 109.374 166.6 109.374C157.903 109.374 150.542 111.494 144.517 115.735C138.553 119.975 134.019 126.054 130.913 133.973C127.869 141.892 126.347 151.401 126.347 162.5C126.347 174.223 127.9 184.043 131.006 191.962C134.174 199.819 138.74 205.742 144.703 209.733C150.666 213.661 157.841 215.626 166.227 215.626C171.01 215.626 175.296 215.033 179.085 213.848C182.874 212.601 186.167 210.824 188.962 208.517C191.757 206.21 194.025 203.435 195.764 200.193C197.565 196.888 198.777 193.178 199.398 189.063L251.949 189.437C251.328 197.543 249.061 205.805 245.147 214.223C241.234 222.578 235.675 230.31 228.469 237.418C221.325 244.464 212.474 250.138 201.914 254.441C191.354 258.743 179.085 260.894 165.109 260.894C147.592 260.894 131.876 257.122 117.961 249.577C104.109 242.032 93.1454 230.933 85.0701 216.28C77.0569 201.627 73.0503 183.7 73.0503 162.5C73.0503 141.175 77.1501 123.217 85.3496 108.626C93.5491 93.973 104.606 82.9052 118.52 75.4227C132.435 67.8779 147.964 64.1055 165.109 64.1055C177.16 64.1055 188.248 65.7578 198.373 69.0626C208.498 72.3674 217.381 77.1998 225.021 83.5599C232.662 89.8576 238.811 97.6207 243.47 106.849C248.129 116.077 250.955 126.646 251.949 138.556Z" fill="#A1A1AA"/>
</g>
</svg>
