<svg width="504" height="109" viewBox="0 0 504 109" fill="none" xmlns="http://www.w3.org/2000/svg">
<rect width="109" height="109" rx="28" fill="white"/>
<path d="M84.5 46.4696H66.875C66.75 45.0057 66.4167 43.6778 65.875 42.4857C65.3542 41.2937 64.625 40.269 63.6875 39.4116C62.7708 38.5333 61.6562 37.8641 60.3437 37.404C59.0312 36.923 57.5417 36.6825 55.875 36.6825C52.9583 36.6825 50.4896 37.3935 48.4687 38.8156C46.4687 40.2376 44.9479 42.2766 43.9062 44.9325C42.8854 47.5884 42.375 50.7776 42.375 54.5C42.375 58.4316 42.8958 61.7253 43.9375 64.3812C45 67.0162 46.5312 69.0029 48.5312 70.3413C50.5312 71.6587 52.9375 72.3175 55.75 72.3175C57.3542 72.3175 58.7917 72.1188 60.0625 71.7215C61.3333 71.3032 62.4375 70.7072 63.375 69.9335C64.3125 69.1597 65.0729 68.2291 65.6562 67.1416C66.2604 66.0333 66.6667 64.789 66.875 63.4087L84.5 63.5342C84.2917 66.2529 83.5312 69.0238 82.2187 71.847C80.9062 74.6492 79.0417 77.2424 76.625 79.6264C74.2292 81.9895 71.2604 83.8926 67.7187 85.3355C64.1771 86.7785 60.0625 87.5 55.375 87.5C49.5 87.5 44.2292 86.2348 39.5625 83.7044C34.9167 81.174 31.2396 77.4515 28.5312 72.5371C25.8437 67.6226 24.5 61.6103 24.5 54.5C24.5 47.3479 25.875 41.3251 28.625 36.4316C31.375 31.5171 35.0833 27.8051 39.75 25.2956C44.4167 22.7652 49.625 21.5 55.375 21.5C59.4167 21.5 63.1354 22.0542 66.5312 23.1625C69.9271 24.2709 72.9062 25.8916 75.4687 28.0247C78.0312 30.1369 80.0937 32.7405 81.6562 35.8356C83.2187 38.9306 84.1667 42.4753 84.5 46.4696Z" fill="black"/>
<path d="M195.06 43.7081H185.161C184.781 41.6227 184.072 39.7877 183.036 38.2028C181.999 36.618 180.73 35.273 179.228 34.1678C177.727 33.0626 176.045 32.2284 174.184 31.6654C172.344 31.1024 170.388 30.8209 168.315 30.8209C164.571 30.8209 161.219 31.7488 158.258 33.6047C155.318 35.4607 152.991 38.182 151.278 41.7687C149.586 45.3554 148.74 49.7346 148.74 54.9062C148.74 60.1194 149.586 64.5194 151.278 68.1062C152.991 71.6929 155.328 74.4038 158.289 76.2389C161.25 78.0739 164.582 78.9915 168.283 78.9915C170.335 78.9915 172.281 78.7204 174.121 78.1782C175.982 77.6152 177.663 76.7915 179.165 75.7071C180.667 74.6227 181.936 73.2986 182.972 71.7346C184.03 70.1498 184.759 68.3355 185.161 66.2919L195.06 66.3232C194.531 69.472 193.505 72.3706 191.982 75.019C190.481 77.6464 188.545 79.9194 186.176 81.8379C183.829 83.7355 181.143 85.2057 178.118 86.2483C175.094 87.291 171.794 87.8123 168.22 87.8123C162.594 87.8123 157.581 86.4986 153.181 83.8711C148.782 81.2228 145.313 77.4379 142.775 72.5166C140.258 67.5953 139 61.7251 139 54.9062C139 48.0663 140.269 42.1962 142.807 37.2957C145.345 32.3744 148.814 28.6 153.213 25.9725C157.613 23.3242 162.615 22 168.22 22C171.667 22 174.882 22.49 177.864 23.4701C180.868 24.4294 183.564 25.8474 185.954 27.7242C188.344 29.5801 190.322 31.8531 191.887 34.5431C193.452 37.2123 194.51 40.2673 195.06 43.7081Z" fill="white"/>
<path d="M210.155 58.4095V86.9365H200.669V22.8758H210.028V46.7109H210.631C211.773 44.1251 213.518 42.0711 215.865 40.5488C218.213 39.0265 221.28 38.2654 225.066 38.2654C228.408 38.2654 231.326 38.9431 233.822 40.2986C236.339 41.654 238.285 43.6768 239.66 46.3668C241.056 49.036 241.754 52.3725 241.754 56.3763V86.9365H232.268V57.5024C232.268 53.9782 231.348 51.2464 229.507 49.3071C227.667 47.3469 225.108 46.3668 221.83 46.3668C219.588 46.3668 217.578 46.836 215.802 47.7744C214.046 48.7128 212.661 50.0891 211.646 51.9033C210.652 53.6967 210.155 55.8654 210.155 58.4095Z" fill="white"/>
<path d="M263.233 88C260.145 88 257.354 87.437 254.858 86.3109C252.362 85.164 250.384 83.5062 248.925 81.3374C247.487 79.1687 246.768 76.51 246.768 73.3611C246.768 70.6502 247.296 68.419 248.354 66.6673C249.411 64.9156 250.839 63.5289 252.637 62.5071C254.435 61.4853 256.444 60.7137 258.665 60.1924C260.886 59.6711 263.149 59.2749 265.454 59.0038C268.373 58.6701 270.742 58.3991 272.561 58.1905C274.38 57.9611 275.702 57.5962 276.527 57.0957C277.351 56.5953 277.764 55.782 277.764 54.6559V54.437C277.764 51.7052 276.981 49.5886 275.416 48.0872C273.872 46.5858 271.567 45.8351 268.5 45.8351C265.306 45.8351 262.789 46.5336 260.949 47.9308C259.13 49.3071 257.872 50.8398 257.174 52.5289L248.259 50.527C249.316 47.6076 250.86 45.2512 252.891 43.4578C254.942 41.6436 257.301 40.3299 259.966 39.5166C262.631 38.6825 265.433 38.2654 268.373 38.2654C270.319 38.2654 272.381 38.4948 274.56 38.9536C276.759 39.3915 278.811 40.2047 280.714 41.3934C282.639 42.582 284.215 44.2815 285.442 46.4919C286.668 48.6815 287.282 51.528 287.282 55.0313V86.9365H278.018V80.3678H277.637C277.024 81.5773 276.104 82.7659 274.877 83.9336C273.65 85.1014 272.074 86.0711 270.15 86.8427C268.225 87.6142 265.92 88 263.233 88ZM265.296 80.4929C267.918 80.4929 270.16 79.982 272.021 78.9602C273.904 77.9384 275.332 76.6038 276.304 74.9564C277.299 73.2881 277.796 71.5052 277.796 69.6076V63.4142C277.457 63.7479 276.802 64.0607 275.829 64.3526C274.877 64.6237 273.788 64.8635 272.561 65.072C271.334 65.2597 270.139 65.437 268.976 65.6038C267.813 65.7498 266.84 65.8749 266.057 65.9791C264.217 66.2085 262.535 66.5943 261.013 67.1365C259.511 67.6787 258.305 68.4607 257.396 69.4825C256.508 70.4834 256.063 71.818 256.063 73.4863C256.063 75.8009 256.931 77.5526 258.665 78.7412C260.399 79.909 262.609 80.4929 265.296 80.4929Z" fill="white"/>
<path d="M317.304 38.891V46.3981H290.686V38.891H317.304ZM297.824 27.3801H307.31V72.8294C307.31 74.6436 307.585 76.0095 308.135 76.927C308.685 77.8237 309.393 78.4389 310.26 78.7725C311.149 79.0853 312.111 79.2417 313.148 79.2417C313.909 79.2417 314.575 79.1896 315.146 79.0853C315.717 78.981 316.161 78.8976 316.479 78.8351L318.192 86.5611C317.642 86.7697 316.859 86.9782 315.844 87.1867C314.829 87.4161 313.56 87.5412 312.037 87.5621C309.541 87.6038 307.215 87.1659 305.057 86.2483C302.9 85.3308 301.155 83.9128 299.823 81.9943C298.49 80.0758 297.824 77.6673 297.824 74.7687V27.3801Z" fill="white"/>
<path d="M324.245 86.9365V22.8758H333.731V46.6796H334.302C334.852 45.6787 335.645 44.5213 336.682 43.2076C337.718 41.8938 339.156 40.7469 340.996 39.7668C342.836 38.7659 345.269 38.2654 348.293 38.2654C352.227 38.2654 355.738 39.2455 358.826 41.2057C361.914 43.1659 364.336 45.9915 366.091 49.6825C367.868 53.3735 368.756 57.8152 368.756 63.0076C368.756 68.2 367.879 72.6521 366.123 76.364C364.368 80.055 361.957 82.9014 358.89 84.9033C355.823 86.8844 352.322 87.8749 348.388 87.8749C345.427 87.8749 343.006 87.3848 341.123 86.4047C339.262 85.4246 337.802 84.2777 336.745 82.964C335.687 81.6502 334.873 80.4825 334.302 79.4607H333.509V86.9365H324.245ZM333.541 62.9137C333.541 66.2919 334.038 69.2531 335.032 71.7972C336.026 74.3412 337.464 76.3327 339.346 77.7716C341.229 79.1896 343.534 79.8986 346.263 79.8986C349.097 79.8986 351.466 79.1583 353.369 77.6777C355.273 76.1763 356.711 74.1431 357.684 71.5782C358.678 69.0133 359.175 66.1251 359.175 62.9137C359.175 59.7441 358.689 56.8976 357.716 54.3744C356.764 51.8512 355.326 49.8597 353.401 48.4C351.498 46.9403 349.118 46.2104 346.263 46.2104C343.513 46.2104 341.187 46.909 339.283 48.3062C337.401 49.7033 335.973 51.6531 335 54.1555C334.027 56.6578 333.541 59.5773 333.541 62.9137Z" fill="white"/>
<path d="M388.23 88C385.142 88 382.35 87.437 379.854 86.3109C377.358 85.164 375.381 83.5062 373.921 81.3374C372.483 79.1687 371.764 76.51 371.764 73.3611C371.764 70.6502 372.293 68.419 373.35 66.6673C374.408 64.9156 375.835 63.5289 377.633 62.5071C379.431 61.4853 381.44 60.7137 383.661 60.1924C385.882 59.6711 388.145 59.2749 390.45 59.0038C393.369 58.6701 395.738 58.3991 397.557 58.1905C399.376 57.9611 400.698 57.5962 401.523 57.0957C402.348 56.5953 402.76 55.782 402.76 54.6559V54.437C402.76 51.7052 401.977 49.5886 400.412 48.0872C398.868 46.5858 396.563 45.8351 393.496 45.8351C390.302 45.8351 387.785 46.5336 385.945 47.9308C384.126 49.3071 382.868 50.8398 382.17 52.5289L373.255 50.527C374.312 47.6076 375.856 45.2512 377.887 43.4578C379.938 41.6436 382.297 40.3299 384.962 39.5166C387.627 38.6825 390.429 38.2654 393.369 38.2654C395.315 38.2654 397.377 38.4948 399.556 38.9536C401.755 39.3915 403.807 40.2047 405.71 41.3934C407.635 42.582 409.211 44.2815 410.438 46.4919C411.664 48.6815 412.278 51.528 412.278 55.0313V86.9365H403.014V80.3678H402.633C402.02 81.5773 401.1 82.7659 399.873 83.9336C398.646 85.1014 397.07 86.0711 395.146 86.8427C393.221 87.6142 390.916 88 388.23 88ZM390.292 80.4929C392.914 80.4929 395.156 79.982 397.018 78.9602C398.9 77.9384 400.328 76.6038 401.301 74.9564C402.295 73.2881 402.792 71.5052 402.792 69.6076V63.4142C402.453 63.7479 401.798 64.0607 400.825 64.3526C399.873 64.6237 398.784 64.8635 397.557 65.072C396.33 65.2597 395.135 65.437 393.972 65.6038C392.809 65.7498 391.836 65.8749 391.053 65.9791C389.213 66.2085 387.532 66.5943 386.009 67.1365C384.507 67.6787 383.301 68.4607 382.392 69.4825C381.504 70.4834 381.059 71.818 381.059 73.4863C381.059 75.8009 381.927 77.5526 383.661 78.7412C385.395 79.909 387.606 80.4929 390.292 80.4929Z" fill="white"/>
<path d="M456.069 50.6209L447.471 52.1223C447.111 51.0379 446.54 50.0057 445.758 49.0256C444.996 48.0455 443.96 47.2427 442.649 46.6171C441.337 45.9915 439.698 45.6787 437.731 45.6787C435.045 45.6787 432.803 46.273 431.005 47.4616C429.207 48.6294 428.309 50.1412 428.309 51.9972C428.309 53.6028 428.911 54.8957 430.117 55.8758C431.323 56.8559 433.268 57.6588 435.955 58.2844L443.696 60.036C448.18 61.0578 451.521 62.6322 453.721 64.7592C455.921 66.8863 457.021 69.6493 457.021 73.0483C457.021 75.9261 456.175 78.491 454.482 80.7431C452.812 82.9744 450.474 84.7261 447.471 85.9981C444.489 87.2701 441.031 87.9062 437.097 87.9062C431.64 87.9062 427.188 86.7592 423.74 84.4654C420.292 82.1507 418.177 78.8663 417.395 74.6123L426.564 73.236C427.135 75.5924 428.309 77.3754 430.085 78.5848C431.862 79.7735 434.178 80.3678 437.033 80.3678C440.142 80.3678 442.628 79.7318 444.489 78.4597C446.35 77.1668 447.281 75.5924 447.281 73.7365C447.281 72.2351 446.71 70.9735 445.567 69.9517C444.446 68.9299 442.723 68.1583 440.396 67.637L432.147 65.854C427.6 64.8322 424.237 63.2057 422.059 60.9744C419.901 58.7431 418.823 55.9175 418.823 52.4976C418.823 49.6616 419.626 47.1801 421.234 45.0531C422.841 42.9261 425.062 41.2682 427.896 40.0796C430.73 38.8701 433.977 38.2654 437.636 38.2654C442.902 38.2654 447.048 39.3915 450.073 41.6436C453.097 43.8749 455.096 46.8673 456.069 50.6209Z" fill="white"/>
<path d="M483.093 87.9062C478.291 87.9062 474.156 86.8948 470.688 84.872C467.24 82.8284 464.575 79.9611 462.693 76.2701C460.832 72.5583 459.901 68.2104 459.901 63.2265C459.901 58.3052 460.832 53.9678 462.693 50.2142C464.575 46.4607 467.198 43.5308 470.561 41.4246C473.945 39.3185 477.9 38.2654 482.426 38.2654C485.176 38.2654 487.841 38.7137 490.421 39.6104C493.002 40.5071 495.318 41.9147 497.369 43.8332C499.421 45.7517 501.039 48.2436 502.223 51.309C503.408 54.3536 504 58.055 504 62.4133V65.7289H465.263V58.7223H494.704C494.704 56.2616 494.197 54.0825 493.181 52.1848C492.166 50.2663 490.739 48.7545 488.898 47.6493C487.08 46.5441 484.943 45.9915 482.49 45.9915C479.825 45.9915 477.498 46.6379 475.51 47.9308C473.543 49.2028 472.02 50.8711 470.942 52.9355C469.884 54.9791 469.355 57.2 469.355 59.5981V65.072C469.355 68.2834 469.926 71.0152 471.068 73.2673C472.232 75.5194 473.85 77.2398 475.923 78.4284C477.995 79.5962 480.417 80.1801 483.188 80.1801C484.986 80.1801 486.625 79.9299 488.105 79.4294C489.586 78.9081 490.865 78.1365 491.944 77.1147C493.023 76.0929 493.848 74.8313 494.419 73.3299L503.397 74.9251C502.678 77.5318 501.388 79.8152 499.527 81.7754C497.687 83.7147 495.371 85.2265 492.579 86.3109C489.808 87.3744 486.646 87.9062 483.093 87.9062Z" fill="white"/>
<mask id="mask0_2824_8602" style="mask-type:alpha" maskUnits="userSpaceOnUse" x="21" y="23" width="44" height="66">
<path d="M41.5 23L51 37.5L62.5 71L65 87L33.5 89L21 71L24.5 36L41.5 23Z" fill="#A1A1AA"/>
</mask>
<g mask="url(#mask0_2824_8602)">
<path opacity="0.2" d="M84.5 46.4696H66.875C66.75 45.0057 66.4167 43.6778 65.875 42.4857C65.3542 41.2937 64.625 40.269 63.6875 39.4116C62.7708 38.5333 61.6562 37.8641 60.3438 37.404C59.0313 36.923 57.5417 36.6825 55.875 36.6825C52.9583 36.6825 50.4896 37.3935 48.4687 38.8156C46.4687 40.2376 44.9479 42.2766 43.9062 44.9325C42.8854 47.5884 42.375 50.7776 42.375 54.5C42.375 58.4316 42.8958 61.7253 43.9375 64.3812C45 67.0162 46.5312 69.0028 48.5312 70.3413C50.5312 71.6587 52.9375 72.3175 55.75 72.3175C57.3542 72.3175 58.7917 72.1188 60.0625 71.7215C61.3333 71.3032 62.4375 70.7072 63.375 69.9335C64.3125 69.1597 65.0729 68.2291 65.6562 67.1416C66.2604 66.0333 66.6667 64.789 66.875 63.4087L84.5 63.5342C84.2917 66.2529 83.5312 69.0238 82.2187 71.847C80.9062 74.6492 79.0417 77.2424 76.625 79.6264C74.2292 81.9895 71.2604 83.8926 67.7187 85.3355C64.1771 86.7785 60.0625 87.5 55.375 87.5C49.5 87.5 44.2292 86.2348 39.5625 83.7044C34.9167 81.174 31.2396 77.4515 28.5312 72.5371C25.8438 67.6226 24.5 61.6103 24.5 54.5C24.5 47.3479 25.875 41.3251 28.625 36.4316C31.375 31.5171 35.0833 27.8051 39.75 25.2956C44.4167 22.7652 49.625 21.5 55.375 21.5C59.4167 21.5 63.1354 22.0542 66.5312 23.1625C69.9271 24.2709 72.9062 25.8916 75.4687 28.0247C78.0312 30.1369 80.0937 32.7405 81.6562 35.8356C83.2187 38.9306 84.1667 42.4753 84.5 46.4696Z" fill="white"/>
</g>
</svg>
